#!OML:ASF X:\für Bonn\!DataBase\2005_08_12_Daniel\c3d\Daniel.ASF
:FULLY-SPECIFIED
:DEGREES
38
root 3.97914 21.1228 0.72193 313.466 84.4007 322.458
lowerback 11.1201 -1.40271 3.76864
upperback 0.0547242 -1.36439 -0.11193
thorax -6.28273 -0.777267 -2.01993
lowerneck 1.64044 3.02239 -4.7102
upperneck 18.5282 5.02632 -0.863391
head 5.23717 2.33185 0.732503
rclavicle -2.16924e-014 -4.17448e-015
rhumerus -17.7623 30.9472 -82.262
rradius 118.446
rwrist -3.97365
rhand -19.1176 21.4282
rfingers 7.12502
rthumb 7.19162 -8.42962
lclavicle -2.16924e-014 -4.17448e-015
lhumerus 167.198 203.126 250.139
lradius 121.534
lwrist 28.106
lhand -12.9248 -16.0623
lfingers 7.12502
lthumb 13.1657 13.502
rfemur 3.19382 -1.7261 25.357
rtibia 38.5803
rfoot 25.9547 -3.866
rtoes -12.7894
lfemur -2.99375 4.91589 -16.1856
ltibia 55.736
lfoot 16.6055 -3.1522
ltoes -9.367
39
root 4.18259 21.1618 0.729303 313.68 84.3483 322.648
lowerback 11.3376 -1.4 3.79321
upperback 0.26759 -1.34679 -0.102729
thorax -6.17881 -0.762428 -2.02596
lowerneck 1.69599 3.05639 -4.72023
upperneck 18.9829 5.10236 -0.797653
head 5.36722 2.37098 0.763994
rclavicle 1.55301e-014 -6.36111e-015
rhumerus -17.641 30.2097 -81.9095
rradius 118.505
rwrist -4.49416
rhand -19.24 21.2402
rfingers 7.12502
rthumb 7.0735 -8.62157
lclavicle 1.55301e-014 -6.36111e-015
lhumerus 167.156 203.648 249.695
lradius 121.857
lwrist 28.1314
lhand -13.2147 -15.8692
lfingers 7.12502
lthumb 12.8862 13.7129
rfemur 2.56788 -2.21759 25.259
rtibia 38.5293
rfoot 24.3404 -3.98124
rtoes -12.6807
lfemur -3.30935 5.40442 -16.1512
ltibia 55.1245
lfoot 15.8028 -2.89147
ltoes -7.55015
40
root 4.38561 21.1917 0.736337 313.794 84.3275 322.679
lowerback 11.5279 -1.41068 3.79639
upperback 0.470568 -1.35037 -0.0892371
thorax -6.07068 -0.757281 -2.01221
lowerneck 1.84889 3.08983 -4.7556
upperneck 19.2638 5.16079 -0.738369
head 5.42675 2.40214 0.792039
rclavicle 1.13307e-014 9.93923e-016
rhumerus -17.7356 29.5683 -81.6883
rradius 118.443
rwrist -5.09737
rhand -19.3135 21.2071
rfingers 7.12502
rthumb 7.00251 -8.65703
lclavicle 1.13307e-014 9.93923e-016
lhumerus 166.921 204.107 249.416
lradius 122.093
lwrist 27.864
lhand -13.3677 -15.5867
lfingers 7.12502
lthumb 12.7388 14.0047
rfemur 1.88661 -2.66295 25.1684
rtibia 38.4024
rfoot 22.6903 -3.88184
rtoes -12.9823
lfemur -3.74041 5.85916 -16.1318
ltibia 54.5118
lfoot 14.7946 -2.81516
ltoes -7.16124
41
root 4.58946 21.2123 0.743018 314.039 84.2703 322.738
lowerback 11.6118 -1.41028 3.81761
upperback 0.665714 -1.34018 -0.053061
thorax -5.91014 -0.74493 -1.98878
lowerneck 2.06961 3.14441 -4.92956
upperneck 19.3918 5.22251 -0.595735
head 5.42146 2.43264 0.864687
rclavicle 1.19395e-014 -6.55989e-015
rhumerus -17.97 28.9781 -81.5529
rradius 118.311
rwrist -5.72564
rhand -19.1751 21.27
rfingers 7.12502
rthumb 7.13609 -8.58971
lclavicle 1.19395e-014 -6.55989e-015
lhumerus 166.552 204.43 249.333
lradius 122.197
lwrist 27.3493
lhand -13.2482 -15.3187
lfingers 7.12502
lthumb 12.8539 14.2655
rfemur 1.12626 -3.06879 25.1194
rtibia 38.1712
rfoot 21.0352 -3.65529
rtoes -13.3419
lfemur -4.32111 6.28601 -16.1168
ltibia 53.9121
lfoot 13.8743 -2.96703
ltoes -7.52612
42
root 4.79272 21.2206 0.749923 314.366 84.2325 322.821
lowerback 11.661 -1.41122 3.84423
upperback 0.836368 -1.33423 -0.0406496
thorax -5.75717 -0.735821 -1.99297
lowerneck 2.45395 3.20863 -5.11024
upperneck 19.3398 5.27048 -0.429843
head 5.33166 2.46109 0.938016
rclavicle 2.52829e-015 1.59028e-015
rhumerus -18.3471 28.4272 -81.5627
rradius 118.11
rwrist -6.1529
rhand -18.8625 21.2622
rfingers 7.12502
rthumb 7.43789 -8.587
lclavicle 2.52829e-015 1.59028e-015
lhumerus 166.024 204.77 249.294
lradius 122.232
lwrist 26.6662
lhand -12.9007 -15.0485
lfingers 7.12502
lthumb 13.1889 14.5143
rfemur 0.294981 -3.44192 25.0711
rtibia 37.9111
rfoot 19.507 -3.54279
rtoes -13.2595
lfemur -4.98685 6.70074 -16.1182
ltibia 53.3356
lfoot 13.0458 -3.35748
ltoes -8.33112
